<?xml version="1.0" standalone="no"?> <!DOCTYPE svg PUBLIC "-//W3C//DTD SVG 1.0//EN" "http://www.w3.org/TR/2001/REC-SVG-20010904/DTD/svg10.dtd" > <svg xmlns="http://www.w3.org/2000/svg" width="100%" height="100%">
<defs >
<font id="latoblackitalic" horiz-adv-x="1082" ><font-face
    font-family="Lato"
    units-per-em="2000"
    panose-1="2 15 5 2 2 2 4 3 2 3"
    ascent="1974"
    descent="-426"
    alphabetic="0" />
<missing-glyph horiz-adv-x="1123" d="M230 1152Q292 1200 370 1231T553 1263Q631 1263 690 1243T791 1187T853 1100T874 987Q874 932 861 892T829 823T786 773T740 734T701 699T678 661L651 571H439L417 683Q409 722 418 749T447 798T490 837T536 874T572 915T587
968Q587 991 574 1006T525 1022Q493 1022 472 1017T436 1006T407 994T375 989Q332 989 312 1025L230 1152ZM374 331Q374 364 386 392T420 442T471 475T535 487Q568 487 597 475T647 442T681 393T694 331Q694 298 682 270T648 220T597 187T535 175Q500 175 471 187T420
220T386 269T374 331ZM40 1457H1083V0H40V1457ZM117 80H996V1377H117V80Z" />
<glyph unicode=" " glyph-name="null" horiz-adv-x="410" />
<glyph unicode="!" glyph-name="null" horiz-adv-x="553" d="M512 1457L442 883Q431 792 409 702T358 516H156Q150 611 151 701T164 883L234 1457H512ZM52 157Q52 193 65 224T102 278T158 314T228 328Q265 328 297 315T353 278T390 224T404 157Q404 121 391 90T353
35T297 -1T228 -14Q190 -14 158 -1T103 35T66 89T52 157Z" />
<glyph unicode="&quot;" glyph-name="null" horiz-adv-x="787" d="M441 1455L405 1169L359 1011Q344 959 318 932T241 904Q197 904 178 931T153 1011L145 1169L181 1455H441ZM809 1455L773 1169L727 1011Q712 959 686 932T609 904Q565 904 546 931T521 1011L513
1169L549 1455H809Z" />
<glyph unicode="#" glyph-name="null" horiz-adv-x="1160" d="M709 851H537L463 606H636L709 851ZM1205 1058L1165 938Q1151 893 1119 872T1023 851H953L880 606H995Q1040 606 1056 580T1055 489L1027 397H826L707 0H567Q547 0 531 9T505 35T493 73T499 119L582
397H409L323 104Q315 76 300 56T265 24T223 6T177 0H43L164 397H71Q26 397 10 424T11 514L39 606H218L291 851H89L127 972Q142 1017 174 1037T271 1058H346L435 1359Q450 1404 488 1429T573 1455H711L590 1058H762L883 1455H1017Q1039 1455 1057 1448T1086 1427T1100
1396T1097 1357L1008 1058H1205Z" />
<glyph unicode="$" glyph-name="null" horiz-adv-x="1160" d="M597 229Q697 244 746 296T796 436Q796 489 762 520T673 574L597 229ZM632 1222Q578 1215 541 1199T481 1161T448 1110T438 1051Q438 998 472 964T562 906L632 1222ZM732 847Q796 827 860 802T974
739T1056 644T1088 506Q1088 406 1051 316T943 156T772 40T544 -14L516 -144Q514 -157 506 -169T486 -191T459 -207T428 -213H318L363 -6Q307 3 254 20T152 60T63 113T-10 176L100 309Q114 326 134 337T178 348Q202 348 225 335T275 304T337 266T416 235L502 627Q438
646 375 670T262 735T181 835T150 986Q150 1076 187 1160T293 1311T462 1420T685 1468L710 1581Q715 1609 740 1630T798 1652H908L865 1457Q971 1437 1042 1393T1162 1297L1076 1190Q1056 1165 1038 1155T996 1144Q981 1144 962 1151T920 1170T871 1194T813 1215L732
847Z" />
<glyph unicode="%" glyph-name="null" horiz-adv-x="1555" d="M778 1155Q778 1062 746 986T661 856T541 773T404 743Q340 743 288 765T199 829T142 927T122 1053Q122 1146 151 1222T230 1354T348 1439T494 1469Q558 1469 610 1447T700 1383T758 1283T778 1155ZM548
1153Q548 1225 527 1254T470 1284Q443 1284 421 1272T384 1232T361 1160T352 1053Q352 984 372 957T428 930Q454 930 476 941T514 978T539 1047T548 1153ZM1228 1411Q1245 1427 1267 1441T1328 1455H1546L356 42Q339 25 317 13T262 0H40L1228 1411ZM1460 394Q1460
301 1428 225T1343 95T1223 12T1086 -18Q1022 -18 970 4T881 68T824 166T804 291Q804 385 833 462T912 594T1030 679T1176 709Q1240 709 1292 686T1382 622T1440 523T1460 394ZM1230 392Q1230 465 1209 493T1152 521Q1125 521 1103 509T1066 470T1043 398T1034
291Q1034 223 1054 196T1110 168Q1136 168 1158 179T1196 216T1221 286T1230 392Z" />
<glyph unicode="&amp;" glyph-name="null" horiz-adv-x="1357" d="M447 641Q385 589 362 528T338 399Q338 358 347 324T376 266T430 228T510 214Q563 214 612 232T708 284L447 641ZM1294 0H1034Q998 0 973 4T927 19T891 44T856 83L839 107Q750 47 651 16T446 -16Q345
-16 267 10T137 86T57 205T30 361Q30 437 53 503T118 626T216 729T340 808Q312 868 300 927T288 1041Q288 1128 319 1206T408 1343T549 1436T736 1471Q827 1471 894 1443T1007 1369T1073 1262T1094 1137L914 1102Q876 1095 858 1104T828 1145Q794 1251 708 1251Q674
1251 648 1236T603 1194T576 1133T566 1059Q566 1019 579 975T626 880L898 521Q953 630 977 758Q982 785 996 802T1040 819H1252Q1233 673 1182 546T1055 315L1294 0Z" />
<glyph unicode="&apos;" glyph-name="null" horiz-adv-x="419" d="M441 1455L405 1169L359 1011Q344 959 318 932T241 904Q197 904 178 931T153 1011L145 1169L181 1455H441Z" />
<glyph unicode="(" glyph-name="null" horiz-adv-x="548" d="M312 427Q312 361 317 287T331 138T355 -8T388 -140Q397 -164 397 -181T390 -212T371 -235T346 -253L204 -330Q164 -246 136 -154T89 34T61 224T52 406Q52 562 72 709T139 1001T258 1288T438 1582L562
1506Q573 1498 582 1489T595 1466T594 1434T574 1392Q515 1285 467 1173T385 940T331 692T312 427Z" />
<glyph unicode=")" glyph-name="null" horiz-adv-x="547" d="M237 825Q237 891 232 965T217 1114T193 1260T161 1392Q152 1416 152 1434T159 1465T177 1488T203 1506L345 1582Q385 1498 413 1406T460 1219T488 1029T497 846Q497 690 477 543T410 252T289 -36T109
-330L-13 -253Q-24 -245 -33 -236T-46 -213T-45 -182T-25 -140Q33 -34 81 79T164 313T218 561T237 825Z" />
<glyph unicode="*" glyph-name="null" horiz-adv-x="794" d="M655 1201Q635 1190 615 1183T575 1171Q613 1165 647 1140L767 1051L685 938L563 1025Q547 1036 534 1046T509 1070Q513 1053 513 1035T511 996L489 819H349L371 994Q375 1035 391 1071Q377 1058 361
1047T325 1025L183 938L129 1053L271 1140Q312 1164 350 1171Q332 1175 314 1182T279 1201L157 1290L241 1406L363 1316Q379 1306 392 1296T417 1271Q413 1288 413 1307T415 1346L437 1522H577L555 1347Q550 1306 534 1270Q548 1284 565 1295T601 1316L743 1404L797
1288L655 1201Z" />
<glyph unicode="+" glyph-name="null" horiz-adv-x="1160" d="M1067 565H694L645 165H401L451 565H79L107 779H477L527 1177H769L720 779H1095L1067 565Z" />
<glyph unicode="," glyph-name="null" horiz-adv-x="489" d="M59 -247Q37 -229 37 -205Q37 -189 54 -169T94 -124T139 -66T171 6Q137 9 109 23T61 59T30 111T19 176Q19 208 31 235T65 283T118 316T187 328Q232 328 265 313T320 271T352 210T363 137Q363 87 347
31T300 -83T221 -195T113 -295L59 -247Z" />
<glyph unicode="-" glyph-name="null" horiz-adv-x="687" d="M106 728H608L576 486H76L106 728Z" />
<glyph unicode="." glyph-name="null" horiz-adv-x="483" d="M13 157Q13 193 26 224T63 278T119 314T189 328Q226 328 258 315T314 278T351 224T365 157Q365 121 352 90T314 35T258 -1T189 -14Q151 -14 119 -1T64 35T27 89T13 157Z" />
<glyph unicode="/" glyph-name="null" horiz-adv-x="880" d="M257 7Q243 -19 224 -39T182 -73T135 -94T89 -101H-39L643 1357Q669 1405 711 1432T807 1459H933L257 7Z" />
<glyph unicode="0" glyph-name="null" horiz-adv-x="1160" d="M1104 887Q1104 658 1057 489T927 207T735 40T500 -16Q407 -16 330 20T198 130T113 312T82 568Q82 796 129 966T257 1248T447 1416T683 1472Q776 1472 853 1436T986 1326T1073 1144T1104 887ZM798
903Q798 999 786 1062T753 1163T707 1216T652 1232Q604 1232 557 1200T472 1090T411 881T388 550Q388 455 400 392T431 292T476 239T530 224Q562 224 594 237T656 282T712 364T757 490T787 668T798 903Z" />
<glyph unicode="1" glyph-name="null" horiz-adv-x="1160" d="M972 216L944 0H174L202 216H455L547 974Q550 1000 554 1026T564 1080L404 941Q381 925 360 921T321 920T290 933T271 952L193 1077L660 1457H907L755 216H972Z" />
<glyph unicode="2" glyph-name="null" horiz-adv-x="1160" d="M902 269Q950 269 974 243T994 173L972 0H23L35 96Q39 124 54 156T102 215L536 641Q601 705 647 759T722 864T764 968T778 1079Q778 1149 748 1188T652 1228Q592 1228 547 1189T479 1093Q452 1040
417 1022T323 1015L168 1042Q197 1150 249 1230T370 1365T524 1445T701 1472Q793 1472 864 1445T985 1369T1061 1253T1087 1105Q1087 1014 1061 939T991 796T887 666T760 537L448 229Q508 247 566 258T673 269H902Z" />
<glyph unicode="3" glyph-name="null" horiz-adv-x="1160" d="M175 1042Q204 1150 256 1230T377 1365T531 1445T708 1472Q801 1472 871 1445T988 1372T1059 1265T1083 1136Q1083 1056 1068 996T1022 891T945 818T838 769Q1027 692 1027 489Q1027 364 982 270T862
112T691 16T493 -16Q399 -16 327 7T202 78T113 199T57 372L197 426Q224 436 249 439T294 438T330 422T352 392Q385 312 426 270T520 227Q569 227 608 248T674 304T715 387T729 488Q729 522 720 550T683 598T606 630T478 641L504 848Q588 848 643 863T729 907T773
980T786 1080Q786 1150 756 1189T659 1228Q599 1228 554 1189T486 1093Q459 1040 424 1022T329 1015L175 1042Z" />
<glyph unicode="4" glyph-name="null" horiz-adv-x="1160" d="M674 563L722 962Q726 991 731 1022T744 1088L338 563H674ZM1067 563L1046 394Q1043 371 1026 355T981 339H908L866 0H606L647 339H113Q86 339 66 356T43 400L31 548L760 1456H1045L935 563H1067Z" />
<glyph unicode="5" glyph-name="null" horiz-adv-x="1160" d="M1086 1456L1070 1333Q1062 1271 1017 1233T877 1194H571L500 942Q538 949 573 952T640 955Q736 955 808 925T928 843T1001 720T1025 569Q1025 441 980 334T856 149T670 28T438 -16Q372 -16 314 -1T207
39T117 97T44 167L152 291Q186 329 232 329Q260 329 282 313T331 278T394 242T487 226Q553 226 598 252T671 322T711 420T723 532Q723 621 677 670T544 719Q455 719 367 682L188 732L393 1456H1086Z" />
<glyph unicode="6" glyph-name="null" horiz-adv-x="1067" d="M534 221Q580 221 621 242T694 300T745 388T764 500Q764 595 717 649T586 704Q541 704 502 684T432 627T385 536T367 417Q367 329 407 275T534 221ZM584 898Q615 909 648 914T720 920Q786 920 848
897T959 828T1037 711T1067 546Q1067 431 1025 329T909 150T732 29T509 -16Q407 -16 328 17T194 109T111 249T83 429Q83 498 96 562T136 688T202 813T294 940L647 1387Q672 1416 716 1436T815 1456H1081L620 938L584 898Z" />
<glyph unicode="7" glyph-name="null" horiz-adv-x="1160" d="M1164 1456L1148 1331Q1140 1275 1123 1241T1092 1182L504 98Q478 57 438 29T336 0H118L716 1057Q743 1098 770 1131T828 1194H250Q224 1194 206 1214T191 1259L216 1456H1164Z" />
<glyph unicode="8" glyph-name="null" horiz-adv-x="1160" d="M530 209Q584 209 622 229T686 284T722 367T734 471Q734 509 727 540T701 593T654 627T581 639Q476 639 428 576T379 384Q379 347 387 315T414 260T460 223T530 209ZM657 1254Q609 1254 576 1235T523
1185T493 1111T484 1024Q484 994 490 966T510 915T548 880T610 866Q656 866 689 884T743 933T775 1008T785 1101Q785 1131 778 1158T756 1207T717 1241T657 1254ZM849 758Q952 716 996 642T1041 468Q1041 358 1001 269T889 116T718 19T502 -16Q403 -16 323 11T186
88T100 207T69 363Q69 433 83 495T131 608T216 698T345 762Q269 803 232 869T194 1027Q194 1123 232 1204T337 1345T493 1438T685 1472Q773 1472 845 1445T968 1371T1048 1259T1077 1119Q1077 991 1021 899T849 758Z" />
<glyph unicode="9" glyph-name="null" horiz-adv-x="1160" d="M444 967Q444 881 482 835T598 789Q647 789 686 808T752 861T793 944T808 1049Q808 1140 764 1188T646 1236Q600 1236 563 1216T500 1161T459 1076T444 967ZM602 555Q616 571 629 586T655 617Q566
571 462 571Q403 571 346 593T243 661T169 773T141 931Q141 1041 181 1139T294 1312T464 1429T680 1472Q779 1472 856 1441T985 1355T1065 1222T1092 1054Q1092 974 1078 904T1036 768T971 642T884 519L544 66Q521 39 478 20T382 0H106L602 555Z" />
<glyph unicode=":" glyph-name="null" horiz-adv-x="536" d="M40 157Q40 193 53 224T90 278T146 314T216 328Q253 328 285 315T341 278T378 224T392 157Q392 121 379 90T341 35T285 -1T216 -14Q178 -14 146 -1T91 35T54 89T40 157ZM116 840Q116 876 129 907T166
961T222 997T292 1011Q329 1011 361 998T417 961T454 907T468 840Q468 804 455 773T417 718T361 682T292 669Q254 669 222 682T167 718T130 772T116 840Z" />
<glyph unicode=";" glyph-name="null" horiz-adv-x="561" d="M97 -247Q75 -229 75 -205Q75 -189 92 -169T132 -124T177 -66T209 6Q175 9 147 23T99 59T68 111T57 176Q57 208 69 235T103 283T156 316T225 328Q270 328 303 313T358 271T390 210T401 137Q401 87 385
31T338 -83T259 -195T151 -295L97 -247ZM127 840Q127 876 140 907T177 961T233 997T303 1011Q340 1011 372 998T428 961T465 907T479 840Q479 804 466 773T428 718T372 682T303 669Q265 669 233 682T178 718T141 772T127 840Z" />
<glyph unicode="&lt;" glyph-name="null" horiz-adv-x="1160" d="M1022 1159L995 944Q992 921 978 902T935 868L633 715Q579 690 512 675Q577 660 623 635L890 481Q915 468 924 449T930 406L902 191L145 614L156 705L160 735L1022 1159Z" />
<glyph unicode="=" glyph-name="null" horiz-adv-x="1160" d="M124 597H1030L1002 383H96L124 597ZM170 960H1074L1048 745H142L170 960Z" />
<glyph unicode="&gt;" glyph-name="null" horiz-adv-x="1160" d="M1019 645L1015 614L152 191L180 406Q183 429 197 448T240 481L541 635Q595 660 662 675Q631 683 603 692T551 715L285 868Q259 882 251 901T245 944L272 1159L1030 735L1019 645Z" />
<glyph unicode="?" glyph-name="null" horiz-adv-x="883" d="M142 1322Q181 1353 224 1380T317 1427T421 1459T538 1471Q623 1471 687 1447T793 1383T857 1289T878 1175Q878 1090 857 1032T802 931T729 859T650 799T580 737T534 658L490 516H284V677Q284 729 307
769T366 844T443 908T519 969T578 1037T602 1120Q602 1174 575 1206T482 1238Q435 1238 402 1227T343 1202T299 1177T262 1165Q239 1165 228 1173T206 1201L142 1322ZM188 157Q188 193 201 224T238 278T294 314T364 328Q401 328 433 315T489 278T526 224T540 157Q540
121 527 90T489 35T433 -1T364 -14Q326 -14 294 -1T239 35T202 89T188 157Z" />
<glyph unicode="@" glyph-name="null" horiz-adv-x="1550" d="M932 791Q911 794 890 794Q842 794 795 767T711 693T651 587T628 461Q628 369 690 369Q709 369 728 376T766 400T801 445T832 517L932 791ZM1064 548Q1047 492 1042 456T1043 399T1064 370T1102 361Q1141
361 1175 394T1236 485T1277 620T1292 785Q1292 888 1265 967T1185 1101T1056 1184T882 1212Q751 1212 641 1156T452 1002T327 770T282 483Q282 351 317 251T416 82T572 -21T776 -56Q849 -56 909 -48T1017 -28T1099 -2T1154 26Q1182 40 1202 42T1236 38T1258 20T1272
-7L1294 -88Q1244 -121 1186 -149T1060 -198T916 -230T754 -242Q596 -242 469 -191T253 -47T115 179T66 473Q66 597 96 713T180 932T312 1120T482 1267T682 1362T906 1396Q1030 1396 1138 1353T1328 1229T1455 1037T1502 785Q1502 660 1466 550T1367 359T1219 230T1036
182Q1008 182 981 188T932 210T892 248T866 304Q803 238 739 211T606 183Q553 183 514 202T448 254T409 332T396 430Q396 491 412 555T459 680T538 793T648 887T789 950T962 973Q1004 973 1037 970T1098 961T1151 947T1202 926L1064 548Z" />
<glyph unicode="A" glyph-name="null" horiz-adv-x="1334" d="M842 555L771 971Q763 1010 754 1063T735 1179Q711 1116 688 1063T647 969L476 555H842ZM1275 0H1023Q981 0 958 19T925 71L880 333H385L277 71Q263 44 233 22T163 0H-93L603 1457H937L1275 0Z" />
<glyph unicode="B" glyph-name="null" horiz-adv-x="1250" d="M627 245Q687 245 728 262T794 311T831 385T843 477Q843 510 835 537T806 582T752 611T669 622H459L413 245H627ZM531 1214L485 838H641Q696 838 740 849T815 886T864 957T881 1066Q881 1147 839 1180T707
1214H531ZM737 1457Q864 1457 954 1433T1102 1365T1186 1258T1213 1119Q1213 1059 1198 1004T1149 901T1063 816T935 751Q1053 719 1109 652T1165 481Q1165 380 1127 293T1015 140T838 38T601 0H57L237 1457H737Z" />
<glyph unicode="C" glyph-name="null" horiz-adv-x="1234" d="M693 252Q748 252 788 260T858 282T907 310T943 339T973 360T1003 369Q1019 369 1029 364T1045 351L1159 214Q1064 101 934 43T637 -16Q499 -16 393 32T213 166T103 367T65 619Q65 744 93 856T172
1063T294 1234T453 1363T640 1444T849 1473Q931 1473 998 1458T1120 1415T1218 1349T1293 1265L1179 1133Q1167 1119 1151 1108T1109 1097Q1092 1097 1078 1105T1050 1124T1017 1150T974 1175T915 1195T833 1203Q741 1203 662 1164T524 1053T432 877T399 645Q399
552 421 479T483 356T576 279T693 252Z" />
<glyph unicode="D" glyph-name="null" horiz-adv-x="1418" d="M1379 822Q1379 703 1352 597T1275 399T1154 234T994 108T801 28T581 0H57L237 1457H761Q904 1457 1018 1409T1213 1275T1336 1074T1379 822ZM1045 814Q1045 903 1025 975T964 1099T864 1178T729 1206H533L417
251H613Q713 251 793 290T929 403T1015 580T1045 814Z" />
<glyph unicode="E" glyph-name="null" horiz-adv-x="1071" d="M534 1206L491 854H903L871 612H461L416 251H959L927 0H57L237 1457H1105L1073 1206H534Z" />
<glyph unicode="F" glyph-name="null" horiz-adv-x="1064" d="M534 1206L487 822H937L903 571H456L385 0H57L237 1457H1105L1073 1206H534Z" />
<glyph unicode="G" glyph-name="null" horiz-adv-x="1350" d="M793 749H1279L1203 140Q1147 99 1087 70T962 21T824 -7T669 -16Q534 -16 423 33T232 170T109 376T65 634Q65 755 92 864T171 1067T293 1235T452 1363T641 1444T853 1473Q946 1473 1021 1456T1157
1411T1264 1345T1347 1267L1241 1136Q1215 1101 1179 1094T1105 1110Q1070 1134 1039 1151T976 1180T909 1197T829 1203Q734 1203 655 1163T519 1049T431 872T399 645Q399 549 422 473T489 344T592 263T725 235Q785 235 833 245T925 275L953 513H829Q799 513 784
528T771 569L793 749Z" />
<glyph unicode="H" glyph-name="null" horiz-adv-x="1448" d="M1419 1457L1239 0H911L988 620H462L385 0H57L237 1457H565L489 842H1015L1091 1457H1419Z" />
<glyph unicode="I" glyph-name="null" horiz-adv-x="593" d="M385 0H57L235 1457H563L385 0Z" />
<glyph unicode="J" glyph-name="null" horiz-adv-x="833" d="M701 523Q686 401 646 302T540 132T383 23T173 -16Q120 -16 70 -10T-35 10L-11 197Q-8 222 6 238T53 255Q77 255 107 250T173 244Q254 244 306 307T375 515L489 1457H815L701 523Z" />
<glyph unicode="K" glyph-name="null" horiz-adv-x="1326" d="M487 861H535Q605 861 641 909L987 1392Q1016 1430 1051 1443T1135 1457H1417L959 862Q912 804 859 777Q893 763 918 739T963 676L1271 0H981Q953 0 934 4T902 16T879 35T863 60L637 572Q625 601 600
612T533 624H458L381 0H57L235 1457H561L487 861Z" />
<glyph unicode="L" glyph-name="null" horiz-adv-x="979" d="M905 260L873 0H57L237 1457H563L415 260H905Z" />
<glyph unicode="M" glyph-name="null" horiz-adv-x="1788" d="M1759 1457L1579 0H1293L1395 848Q1399 875 1405 907T1419 975L981 223Q960 190 929 173T859 156H815Q777 156 749 173T709 223L453 978Q452 944 450 912T445 853L345 0H57L237 1457H485Q506 1457
520 1455T546 1448T566 1433T587 1407L843 640Q854 609 863 577T880 511Q895 544 912 576T949 640L1395 1407Q1410 1423 1422 1433T1446 1448T1473 1455T1509 1457H1759Z" />
<glyph unicode="N" glyph-name="null" horiz-adv-x="1448" d="M1419 1457L1239 0H1069Q1031 0 1008 12T963 54L454 954Q451 896 445 850L345 0H57L237 1457H409Q430 1457 444 1456T470 1449T490 1433T509 1407L1020 507Q1023 542 1026 574T1033 634L1131 1457H1419Z" />
<glyph unicode="O" glyph-name="null" horiz-adv-x="1520" d="M1483 822Q1483 704 1456 596T1378 395T1256 226T1095 97T902 14T683 -16Q539 -16 425 34T230 172T108 378T65 634Q65 752 92 860T170 1062T293 1231T454 1360T647 1443T867 1473Q1010 1473 1124 1423T1318
1284T1440 1077T1483 822ZM1149 814Q1149 904 1128 977T1065 1103T963 1184T827 1213Q727 1213 648 1172T514 1055T429 875T399 641Q399 551 420 478T481 353T582 273T719 244Q819 244 898 285T1033 401T1119 581T1149 814Z" />
<glyph unicode="P" glyph-name="null" horiz-adv-x="1197" d="M629 736Q699 736 746 756T823 814T866 904T879 1018Q879 1061 868 1097T832 1159T772 1199T685 1214H531L472 736H629ZM717 1457Q847 1457 939 1426T1091 1339T1179 1208T1207 1045Q1207 926 1171
825T1059 649T869 533T597 491H442L381 0H57L235 1457H717Z" />
<glyph unicode="Q" glyph-name="null" horiz-adv-x="1520" d="M399 641Q399 551 420 478T481 353T582 273T719 244Q819 244 898 285T1033 401T1119 581T1149 814Q1149 904 1128 977T1065 1103T963 1184T827 1213Q727 1213 648 1172T514 1055T429 875T399 641ZM842
-1Q765 -16 683 -16Q539 -16 425 34T230 172T108 378T65 634Q65 752 92 860T170 1062T293 1231T454 1360T647 1443T867 1473Q1010 1473 1124 1423T1318 1284T1440 1077T1483 822Q1483 711 1459 609T1390 418T1281 255T1138 124L1429 -274H1161Q1104 -274 1060 -259T983
-204L842 -1Z" />
<glyph unicode="R" glyph-name="null" horiz-adv-x="1228" d="M595 769Q665 769 714 790T793 848T837 932T851 1033Q851 1074 839 1107T802 1164T738 1201T647 1214H531L476 769H595ZM677 1457Q811 1457 905 1429T1060 1350T1147 1232T1175 1083Q1175 1003 1154
931T1091 798T991 691T856 614Q886 597 911 573T953 513L1165 0H871Q830 0 803 16T763 62L605 493Q593 520 575 532T521 544H448L381 0H57L235 1457H677Z" />
<glyph unicode="S" glyph-name="null" horiz-adv-x="1046" d="M954 1165Q936 1142 919 1131T878 1119Q855 1119 832 1134T781 1167T715 1200T628 1215Q582 1215 548 1202T490 1166T456 1112T444 1044Q444 1004 466 977T526 930T611 892T707 855T804 809T889 744T949
650T972 518Q972 408 934 311T825 142T653 27T424 -16Q361 -16 298 -2T176 37T67 98T-18 176L98 328Q112 345 132 356T174 367Q202 367 228 348T287 305T361 262T466 242Q557 242 606 291T656 438Q656 483 634 512T575 561T491 596T395 630T299 672T216 736T157
833T134 975Q134 1072 170 1161T275 1320T440 1430T658 1471Q720 1471 778 1458T888 1422T981 1368T1052 1299L954 1165Z" />
<glyph unicode="T" glyph-name="null" horiz-adv-x="1134" d="M1171 1199H801L653 0H329L475 1199H103L135 1457H1205L1171 1199Z" />
<glyph unicode="U" glyph-name="null" horiz-adv-x="1396" d="M654 256Q715 256 765 279T854 346T916 452T950 591L1056 1457H1382L1276 591Q1259 458 1206 347T1067 155T868 29T620 -16Q485 -16 383 29T216 154T124 346T114 591L218 1457H544L438 591Q429 514
439 452T476 347T548 280T654 256Z" />
<glyph unicode="V" glyph-name="null" horiz-adv-x="1334" d="M1455 1457L739 0H443L85 1457H347Q389 1457 414 1437T445 1386L597 583Q610 535 621 477T640 355Q662 418 685 476T735 583L1075 1386Q1081 1399 1092 1412T1119 1435T1152 1451T1191 1457H1455Z" />
<glyph unicode="W" glyph-name="null" horiz-adv-x="1962" d="M2063 1457L1469 0H1173L1039 920Q1035 943 1032 969T1025 1024Q1014 995 1005 969T985 920L629 0H335L99 1457H355Q397 1457 422 1438T453 1386L555 601Q558 564 561 522T567 434Q582 480 597 522T629
601L927 1386Q933 1399 944 1412T970 1435T1003 1451T1041 1457H1117Q1159 1457 1183 1437T1217 1386L1329 601Q1335 566 1340 525T1349 438Q1363 483 1376 524T1401 601L1689 1386Q1693 1400 1704 1413T1731 1435T1766 1451T1805 1457H2063Z" />
<glyph unicode="X" glyph-name="null" horiz-adv-x="1300" d="M897 793L1247 0H955Q923 0 906 16T879 52L664 587Q660 580 656 574T647 562L325 52Q305 23 281 12T227 0H-99L449 778L133 1457H429Q461 1457 474 1449T497 1420L689 960Q699 979 713 999L969 1415Q984
1437 1000 1447T1039 1457H1381L897 793Z" />
<glyph unicode="Y" glyph-name="null" horiz-adv-x="1261" d="M787 559L717 0H391L460 555L85 1457H375Q417 1457 440 1438T475 1386L615 945Q645 859 660 783Q679 821 702 860T751 945L999 1386Q1016 1412 1044 1434T1113 1457H1383L787 559Z" />
<glyph unicode="Z" glyph-name="null" horiz-adv-x="1132" d="M1179 1359Q1176 1339 1167 1321T1145 1286L409 251H1025L993 0H-47L-35 96Q-32 116 -23 134T-1 169L736 1206H153L185 1457H1193L1179 1359Z" />
<glyph unicode="[" glyph-name="null" horiz-adv-x="612" d="M668 1441Q665 1412 640 1391T582 1370H489L303 -134H400Q433 -134 452 -155T466 -207L452 -320H32L262 1555H682L668 1441Z" />
<glyph unicode="\" glyph-name="null" horiz-adv-x="874" d="M150 1459H276Q329 1459 364 1432T414 1357L738 -101H612Q565 -101 525 -74T470 7L150 1459Z" />
<glyph unicode="]" glyph-name="null" horiz-adv-x="612" d="M347 -320H-73L-57 -207Q-54 -177 -30 -156T27 -134H122L308 1370H211Q178 1370 159 1391T143 1441L159 1555H579L347 -320Z" />
<glyph unicode="^" glyph-name="null" horiz-adv-x="1160" d="M1114 768H886Q859 768 842 782T812 816L688 1053Q670 1085 656 1114T632 1172Q622 1143 609 1114T578 1053L458 816Q447 796 429 782T380 768H140L526 1457H728L1114 768Z" />
<glyph unicode="_" glyph-name="null" horiz-adv-x="890" d="M721 -114L697 -300H-29L-5 -114H721Z" />
<glyph unicode="`" glyph-name="null" horiz-adv-x="736" d="M463 1473Q506 1473 525 1458T557 1413L654 1168H492Q460 1168 442 1177T405 1210L196 1473H463Z" />
<glyph unicode="a" glyph-name="null" horiz-adv-x="1061" d="M671 840Q595 840 533 806T425 714T356 578T331 412Q331 362 339 327T360 271T392 239T433 229Q467 229 499 254T559 324T612 427T653 553L690 840H671ZM623 173Q560 85 482 35T309 -16Q253 -16 201
6T109 74T45 190T21 357Q21 498 72 624T216 846T436 997T715 1053Q789 1053 865 1043T1015 1007L889 0H723Q694 0 675 7T644 28T628 59T623 98V173Z" />
<glyph unicode="b" glyph-name="null" horiz-adv-x="1097" d="M356 256Q385 232 421 222T489 212Q543 212 588 248T667 342T718 476T737 629Q737 728 708 773T631 818Q598 818 563 793T494 724T433 622T385 497L356 256ZM432 874Q501 958 582 1005T755 1053Q819
1053 872 1031T963 960T1023 838T1045 660Q1045 524 1004 402T892 186T731 39T539 -16Q462 -16 404 13T304 91L301 81Q287 39 265 20T193 0H23L205 1497H509L432 874Z" />
<glyph unicode="c" glyph-name="null" horiz-adv-x="905" d="M844 182Q794 127 748 89T653 28T549 -5T426 -16Q335 -16 262 15T138 103T58 241T30 423Q30 550 71 664T187 864T364 1000T588 1051Q692 1051 766 1016T900 904L800 789Q789 778 775 770T744 761Q724
761 711 769T681 787T642 805T582 814Q536 814 493 788T415 711T361 588T340 422Q340 370 352 332T385 268T434 229T494 216Q542 216 571 229T623 259T664 288T710 302Q725 302 739 295T764 276L844 182V182Z" />
<glyph unicode="d" glyph-name="null" horiz-adv-x="1099" d="M716 782Q687 806 652 815T584 825Q530 825 485 789T406 695T355 561T336 408Q336 309 365 265T442 220Q474 220 508 244T575 310T636 408T685 530L716 782ZM1110 1497L924 0H758Q729 0 710 7T679
28T663 59T658 98V185Q587 91 501 38T318 -16Q254 -16 201 6T110 77T50 199T28 378Q28 468 47 553T100 714T181 851T284 958T404 1028T534 1053Q599 1053 650 1032T740 975L806 1497H1110Z" />
<glyph unicode="e" glyph-name="null" horiz-adv-x="989" d="M575 842Q498 842 440 781T354 612Q450 627 510 644T603 680T647 722T659 770Q659 796 639 819T575 842ZM917 192Q862 138 810 99T702 34T584 -4T447 -16Q355 -16 278 15T146 104T60 243T29 423Q29
506 47 585T100 733T185 861T297 962T434 1027T593 1051Q676 1051 740 1027T849 965T916 878T939 782Q939 711 911 653T814 548T627 470T331 420Q333 314 377 265T509 216Q550 216 580 223T632 241T673 264T707 287T742 305T783 312Q798 312 812 305T837 285L917
192Z" />
<glyph unicode="f" glyph-name="null" horiz-adv-x="681" d="M496 823L403 50L349 -124Q329 -181 293 -213T189 -246H63L192 824L131 838Q102 846 84 863T71 913L87 1035H218L225 1094Q236 1183 274 1255T371 1378T507 1457T675 1485Q710 1485 739 1481T799 1466L771
1310Q766 1284 743 1276T697 1268Q620 1268 575 1227T517 1084L511 1035H721L693 823H496Z" />
<glyph unicode="g" glyph-name="null" horiz-adv-x="1038" d="M388 -150Q434 -150 473 -138T539 -105T582 -53T598 14Q598 20 598 26T597 37Q495 54 424 53T308 39T244 3T224 -47Q224 -98 261 -124T388 -150ZM474 501Q511 501 538 520T584 569T611 638T622 715Q622
780 595 816T512 852Q475 852 448 835T402 788T375 721T366 642Q366 576 393 539T474 501ZM1060 999L1046 902Q1037 845 988 825L900 795Q906 763 906 727Q906 663 889 618T850 533T812 451T794 352Q794 311 807 277T837 206T866 130T880 38Q879 -42 844 -113T743
-238T581 -323T362 -355Q261 -355 181 -334T46 -277T-40 -192T-70 -85Q-70 -10 -37 44T50 133T173 188T314 215T454 220T575 206Q572 230 572 256Q572 311 599 377Q561 351 510 336T384 321Q325 321 271 340T176 400T109 500T84 644Q84 721 113 794T201 925T346
1018T548 1053Q608 1053 662 1040T762 999H1060Z" />
<glyph unicode="h" glyph-name="null" horiz-adv-x="1103" d="M443 901Q513 979 592 1016T755 1053Q820 1053 873 1027T963 951T1014 828T1017 659L939 0H629L707 659Q712 701 710 730T699 777T674 802T635 810Q604 810 570 792T505 739T446 657T400 549L333 0H23L205
1497H515L443 901Z" />
<glyph unicode="i" glyph-name="null" horiz-adv-x="518" d="M462 1037L338 0H32L156 1037H462ZM520 1321Q520 1284 504 1252T462 1195T403 1156T334 1141Q299 1141 267 1155T211 1194T171 1251T156 1321Q156 1358 171 1391T211 1449T269 1488T336 1503Q372 1503
405 1489T463 1450T504 1392T520 1321Z" />
<glyph unicode="j" glyph-name="null" horiz-adv-x="516" d="M461 1037L335 -2Q326 -75 299 -139T224 -252T108 -329T-49 -357Q-93 -357 -124 -353T-187 -339L-157 -176Q-152 -155 -139 -145T-93 -135Q-61 -135 -40 -129T-4 -108T18 -68T31 -2L157 1037H461ZM507
1321Q507 1284 491 1252T449 1195T390 1156T321 1141Q286 1141 254 1155T198 1194T158 1251T143 1321Q143 1358 158 1391T198 1449T256 1488T323 1503Q359 1503 392 1489T450 1450T491 1392T507 1321Z" />
<glyph unicode="k" glyph-name="null" horiz-adv-x="1049" d="M511 1497L408 658H429Q455 658 470 666T503 695L717 987Q737 1012 759 1024T815 1037H1093L803 668Q761 616 709 587Q730 570 745 547T773 496L981 0H711Q678 0 657 11T623 52L479 419Q468 444 456
451T415 459H383L327 0H21L205 1497H511Z" />
<glyph unicode="l" glyph-name="null" horiz-adv-x="502" d="M23 0L205 1497H511L329 0H23Z" />
<glyph unicode="m" glyph-name="null" horiz-adv-x="1597" d="M23 0L149 1037H309Q357 1037 384 1015T411 941V880Q477 968 550 1010T703 1053Q791 1053 849 996T923 830Q992 945 1074 999T1259 1053Q1324 1053 1376 1027T1462 951T1509 828T1511 659L1433 0H1127L1205
659Q1210 701 1209 730T1200 776T1178 800T1145 808Q1114 808 1086 792T1032 744T985 668T948 568L881 0H575L653 659Q658 701 657 730T648 776T626 800T593 808Q562 808 533 791T479 742T432 665T395 563L327 0H23Z" />
<glyph unicode="n" glyph-name="null" horiz-adv-x="1103" d="M410 858Q485 958 574 1005T758 1053Q822 1053 875 1027T964 951T1015 828T1018 659L940 0H630L708 659Q713 701 712 730T701 776T676 800T638 808Q604 808 567 787T497 728T435 635T391 514L334 0H24L148
1037H308Q356 1037 383 1015T410 941V858Z" />
<glyph unicode="o" glyph-name="null" horiz-adv-x="1055" d="M470 214Q522 214 563 245T632 331T676 458T692 613Q692 726 662 774T562 823Q510 823 469 792T400 706T356 579T340 424Q340 313 370 264T470 214ZM442 -16Q355 -16 280 13T149 97T62 234T30 422Q30
560 75 675T198 875T376 1006T590 1053Q677 1053 752 1024T882 940T970 803T1002 615Q1002 479 957 364T834 164T656 32T442 -16Z" />
<glyph unicode="p" glyph-name="null" horiz-adv-x="1097" d="M357 255Q386 232 421 222T489 212Q543 212 588 248T667 342T718 476T737 629Q737 728 708 773T631 818Q599 818 565 794T498 727T437 628T388 506L357 255ZM411 847Q483 943 569 998T755 1053Q819
1053 872 1031T963 960T1023 838T1045 660Q1045 524 1004 402T892 186T731 39T539 -16Q475 -16 424 5T333 61L285 -329H-17L149 1037H309Q357 1037 384 1015T411 941V847Z" />
<glyph unicode="q" glyph-name="null" horiz-adv-x="1062" d="M672 840Q596 840 534 806T426 714T357 578T332 412Q332 362 340 327T361 271T393 239T434 229Q467 229 499 254T559 322T612 424T653 550L690 840H672ZM601 142Q541 68 468 26T310 -16Q254 -16 202
6T110 74T46 190T22 357Q22 498 73 624T217 846T437 997T716 1053Q790 1053 866 1043T1016 1007L848 -329H644Q615 -329 597 -319T569 -293T555 -259T554 -223L601 142Z" />
<glyph unicode="r" glyph-name="null" horiz-adv-x="727" d="M411 823Q449 890 492 938T580 1012T673 1042T769 1024L713 737Q656 761 607 759T516 725T441 629T383 465L327 0H23L149 1037H309Q357 1037 384 1015T411 941V823Z" />
<glyph unicode="s" glyph-name="null" horiz-adv-x="821" d="M735 819Q721 801 709 793T677 785Q657 785 638 794T596 814T545 835T479 844Q410 844 381 818T351 749Q351 722 367 703T411 669T472 642T543 614T613 578T675 529T718 460T735 365Q735 287 704 218T615
97T475 15T289 -16Q240 -16 192 -6T102 21T24 61T-33 112L43 226Q57 246 75 257T121 269Q146 269 164 257T203 231T253 205T329 193Q395 193 427 222T459 292Q459 323 443 343T399 377T338 403T268 429T198 461T137 508T94 577T77 676Q77 748 103 816T182 936T313
1021T495 1053Q599 1053 680 1017T815 929L735 819Z" />
<glyph unicode="t" glyph-name="null" horiz-adv-x="752" d="M116 224Q116 231 116 241T117 269T122 318T132 399L185 823H102Q81 823 67 838T58 884L72 1005L229 1037L316 1290Q333 1338 384 1338H552L514 1035H746L720 823H488L438 416Q433 375 430 352T426
316T424 299T424 293Q424 264 437 245T480 225Q496 225 506 228T525 236T540 244T556 248Q570 248 576 242T590 221L658 74Q596 29 525 7T382 -16Q322 -16 274 0T192 48T138 124T116 224Z" />
<glyph unicode="u" glyph-name="null" horiz-adv-x="1102" d="M1055 1037L929 0H771Q661 0 661 102V168Q586 74 500 29T321 -16Q256 -16 203 10T115 86T64 210T61 379L139 1037H449L371 379Q366 337 367 308T378 262T402 237T441 229Q473 229 507 247T573 299T632
381T678 488L745 1037H1055Z" />
<glyph unicode="v" glyph-name="null" horiz-adv-x="1007" d="M1065 1037L561 0H299L47 1037H303Q335 1037 353 1022T377 983L445 518Q454 459 460 403T470 289Q488 346 509 402T555 518L737 983Q748 1006 770 1021T819 1037H1065Z" />
<glyph unicode="w" glyph-name="null" horiz-adv-x="1503" d="M1547 1037L1125 0H883Q865 0 854 12T837 52L761 569Q758 591 756 612T751 657Q743 634 735 612T717 567L519 52Q498 0 453 0H221L51 1037H289Q319 1037 338 1022T363 983L393 518Q400 416 402 320Q420
368 440 417T481 518L655 984Q664 1007 687 1022T737 1038H871Q903 1038 922 1023T945 984L1005 518Q1013 467 1019 418T1030 320Q1044 368 1059 417T1093 518L1239 983Q1247 1006 1269 1021T1319 1037H1547Z" />
<glyph unicode="x" glyph-name="null" horiz-adv-x="1017" d="M698 563L955 0H671Q641 0 624 16T597 54L468 371Q463 360 457 351T445 332L261 54Q246 34 227 17T179 0H-95L310 562L77 1037H361Q391 1037 404 1029T427 1001L542 734Q555 758 573 784L709 995Q735
1037 775 1037H1057L698 563Z" />
<glyph unicode="y" glyph-name="null" horiz-adv-x="1006" d="M1068 1037L396 -270Q364 -329 300 -329H68L305 93L48 1037H310Q343 1037 359 1021T382 983L472 536Q478 507 483 478T491 420Q504 450 517 479T544 538L736 983Q748 1006 771 1021T818 1037H1068Z" />
<glyph unicode="z" glyph-name="null" horiz-adv-x="882" d="M879 1037L863 913Q860 881 845 852T813 802L365 230H773L745 0H-31L-15 126Q-13 145 0 174T35 228L487 807H93L121 1037H879Z" />
<glyph unicode="{" glyph-name="null" horiz-adv-x="591" d="M656 1555L640 1425Q638 1410 630 1400T612 1383T590 1373T572 1370H574Q517 1370 487 1329T448 1216Q441 1161 439 1113T436 1019T433 930T426 841Q421 803 407 768T371 702T318 650T249 616Q280 605
303 586T341 542T364 488T372 427Q372 370 361 316T335 207T310 98T298 -16Q298 -70 320 -102T390 -134H388Q396 -134 406 -137T425 -148T439 -166T442 -192L426 -320H378Q289 -320 225 -299T119 -238T58 -143T38 -22Q38 42 51 100T80 214T109 323T122 432Q122
477 104 505T40 534L62 701Q99 701 122 717T158 764T175 844T180 956Q180 967 180 984T179 1019T179 1055T178 1084Q178 1198 203 1285T280 1433T415 1524T610 1555H656Z" />
<glyph unicode="|" glyph-name="null" horiz-adv-x="559" d="M159 1557H399V-329H159V1557Z" />
<glyph unicode="}" glyph-name="null" horiz-adv-x="590" d="M213 1555Q301 1555 365 1534T470 1473T531 1378T551 1255Q551 1192 538 1134T510 1020T482 911T469 803Q469 758 486 730T549 701L529 534Q492 534 469 519T433 471T416 391T411 278V151Q411 37 386
-50T309 -198T175 -289T-19 -320H-67L-49 -192Q-48 -177 -40 -166T-22 -148T0 -138T19 -134H17Q74 -134 104 -94T143 19Q150 73 152 121T155 215T158 304T165 392Q169 430 182 465T218 531T272 583T341 617Q278 639 248 692T217 809Q217 865 229 919T255 1027T281
1136T293 1251Q293 1305 271 1337T201 1370H203Q195 1370 185 1373T166 1382T152 1399T149 1425L165 1555H213Z" />
<glyph unicode="~" glyph-name="null" horiz-adv-x="1160" d="M728 677Q776 677 802 708T828 799H1078Q1078 714 1056 646T991 531T888 458T748 432Q695 432 649 443T562 469T489 495T428 507Q380 507 354 476T328 385H78Q78 470 100 538T165 653T268 726T408
752Q461 752 507 741T594 715T667 689T728 677Z" />
</font>
</defs>
</svg>
